PathFileType	4	(X/Y/Z)	/Users/itak/Documents/Research/Walk-IL/dataset/trc/00148_00007.trc
DataRate	CameraRate	NumFrames	NumMarkers	Units	OrigDataRate	OrigDataStartFrame	OrigNumFrames
100.000000	100.000000	4	54	mm	100.000000	205	547
Frame#	Time	RPSI			LPSI			L3			STRN			T10			C7			CLAV			RBAK			LBAK			LSHO			LUPA			LAEL			LAOL			LWTS			LWPS			LFRA			LIFD			LHPS			LHTS			RSHO			RUPA			RAEL			RAOL			RWTS			RWPS			RFRA			RIFD			RHTS			RHPS			RBHD			LFHD			RFHD			LBHD			LHIP			RHIP			RASI			LASI			LKNE			LTHI			LANK			LTIP			LTOE			LMT1			LMT5			LHEE			RKNE			RTHI			RANK			RTIP			RTOE			RMT1			RMT5			RHEE			*53			
		X1	Y1	Z1	X2	Y2	Z2	X3	Y3	Z3	X4	Y4	Z4	X5	Y5	Z5	X6	Y6	Z6	X7	Y7	Z7	X8	Y8	Z8	X9	Y9	Z9	X10	Y10	Z10	X11	Y11	Z11	X12	Y12	Z12	X13	Y13	Z13	X14	Y14	Z14	X15	Y15	Z15	X16	Y16	Z16	X17	Y17	Z17	X18	Y18	Z18	X19	Y19	Z19	X20	Y20	Z20	X21	Y21	Z21	X22	Y22	Z22	X23	Y23	Z23	X24	Y24	Z24	X25	Y25	Z25	X26	Y26	Z26	X27	Y27	Z27	X28	Y28	Z28	X29	Y29	Z29	X30	Y30	Z30	X31	Y31	Z31	X32	Y32	Z32	X33	Y33	Z33	X34	Y34	Z34	X35	Y35	Z35	X36	Y36	Z36	X37	Y37	Z37	X38	Y38	Z38	X39	Y39	Z39	X40	Y40	Z40	X41	Y41	Z41	X42	Y42	Z42	X43	Y43	Z43	X44	Y44	Z44	X45	Y45	Z45	X46	Y46	Z46	X47	Y47	Z47	X48	Y48	Z48	X49	Y49	Z49	X50	Y50	Z50	X51	Y51	Z51	X52	Y52	Z52	X53	Y53	Z53	X54	Y54	Z54	

206	2.05	-1036.42578125	1096.06005859375	-472.0051879882812	-1042.472778320312	1097.768432617188	-607.548583984375	-1044.04638671875	1135.358642578125	-544.4561157226562	-806.8072509765625	1311.968383789062	-549.1443481445312	-1065.06591796875	1290.0693359375	-549.79296875	-995.052734375	1577.03173828125	-559.37939453125	-827.8400268554688	1449.608276367188	-548.0841674804688	-1071.528686523438	1396.693237304688	-477.7181091308594	-999.516357421875	1559.622680664062	-662.5726318359375	-912.6774291992188	1535.92236328125	-728.4608764648438	-944.0540161132812	1406.830322265625	-801.2144775390625	-956.2612915039062	1186.531494140625	-821.3206787109375	-1026.267211914062	1184.29541015625	-769.2067260742188	-904.80322265625	915.7522583007812	-771.1693725585938	-985.138671875	904.1674194335938	-805.3775634765625	-957.6873168945312	1069.00537109375	-824.3779907226562	-925.7262573242188	724.029296875	-751.2406005859375	-969.077392578125	825.4322509765625	-803.8897705078125	-902.9993286132812	826.5379638671875	-781.2706909179688	-948.905517578125	1545.6513671875	-375.64794921875	-977.1376342773438	1472.685180664062	-315.0889587402344	-1032.96435546875	1183.849609375	-306.9889221191406	-1026.31494140625	1184.616455078125	-404.1121215820312	-930.1790161132812	921.4678344726562	-308.0956115722656	-1009.354370117188	916.8695678710938	-286.9529724121094	-1023.545654296875	1108.408203125	-290.7241516113281	-934.5045166015625	724.8870239257812	-326.6124572753906	-919.7296752929688	810.1677856445312	-302.0585327148438	-989.9474487304688	812.2870483398438	-281.4988098144531	-974.0904541015625	1720.832275390625	-480.17626953125	-796.9910888671875	1814.873901367188	-570.8472900390625	-823.729736328125	1806.09814453125	-443.9310913085938	-955.10986328125	1732.326538085938	-614.1612548828125	-967.3857421875	999.9515380859375	-720.0086669921875	-902.114501953125	1000.008117675781	-361.9813842773438	-824.2318725585938	1062.720825195312	-423.2269897460938	-850.1419677734375	1055.950073242188	-687.9719848632812	-1036.955322265625	502.7083740234375	-685.20947265625	-1022.836791992188	651.6171264648438	-710.6842651367188	-1364.58154296875	89.90886688232422	-660.419189453125	-1236.980834960938	315.6547546386719	-697.9324340820312	-1149.4375	30.67820167541504	-607.9429931640625	-1222.583862304688	45.03520584106445	-573.957763671875	-1253.608276367188	38.6550178527832	-686.3199462890625	-1425.514404296875	126.1170196533203	-598.3865356445312	-760.9539184570312	537.5892333984375	-415.8399963378906	-830.0091552734375	800.3112182617188	-368.1132202148438	-726.3364868164062	23.62137222290039	-470.6752014160156	-751.0238037109375	401.1775512695312	-413.8211059570312	-503.4014892578125	75.06204223632812	-472.5362243652344	-542.6531982421875	49.56172180175781	-524.3331909179688	-605.9232788085938	42.50577926635742	-421.9947509765625	-770.3432006835938	25.37001419067383	-530.8897094726562	nan	nan	nan	
207	2.06	-1025.706665039062	1098.295288085938	-470.4426879882812	-1031.159790039062	1099.758911132812	-605.9920043945312	-1033.04052734375	1137.225952148438	-542.8593139648438	-796.5258178710938	1314.673095703125	-546.6412963867188	-1054.928588867188	1291.591064453125	-548.3602905273438	-986.5444946289062	1578.862670898438	-557.520263671875	-818.4777221679688	1452.218383789062	-545.6130981445312	-1062.101684570312	1398.017700195312	-476.312255859375	-990.394287109375	1561.513671875	-660.692626953125	-903.1759033203125	1538.485717773438	-726.2425537109375	-933.8338012695312	1409.371948242188	-799.3578491210938	-945.6435546875	1189.065551757812	-819.4243774414062	-1015.596313476562	1186.640747070312	-767.292236328125	-893.3432006835938	918.416748046875	-769.35791015625	-973.6842651367188	906.611083984375	-803.5428466796875	-946.7141723632812	1071.547119140625	-822.5576782226562	-913.6666259765625	726.601318359375	-749.3411254882812	-957.4312744140625	827.9021606445312	-802.0413208007812	-891.3489990234375	829.158447265625	-779.4354858398438	-940.9087524414062	1547.644409179688	-373.6537475585938	-969.00146484375	1474.5537109375	-313.2052307128906	-1023.645629882812	1185.548950195312	-305.3902893066406	-1016.624572753906	1186.344970703125	-402.5542297363281	-919.7046508789062	923.6107788085938	-305.8724060058594	-998.950439453125	918.67578125	-285.1381225585938	-1013.962219238281	1110.137817382812	-289.0587158203125	-923.1195678710938	727.0209350585938	-324.377197265625	-908.7540283203125	812.3594360351562	-299.7529602050781	-979.087890625	814.1741333007812	-279.5747375488281	-965.7943115234375	1723.517944335938	-477.9655456542969	-788.135009765625	1817.224365234375	-567.9534301757812	-815.3461303710938	1808.33837890625	-441.1279602050781	-946.3607788085938	1735.13623046875	-611.904052734375	-955.66650390625	1001.959167480469	-718.1453247070312	-891.971435546875	1002.359985351562	-359.8750915527344	-813.7639770507812	1065.172485351562	-420.795654296875	-838.5790405273438	1058.117553710938	-685.5828857421875	-1024.45556640625	503.9949035644531	-685.0595092773438	-1010.524230957031	653.2684326171875	-709.7664794921875	-1360.559814453125	95.89218139648438	-661.4251098632812	-1228.059204101562	320.1820983886719	-698.1287841796875	-1149.296630859375	30.60458183288574	-608.177490234375	-1220.962524414062	46.07600784301758	-574.4312744140625	-1252.12939453125	39.30629730224609	-686.404052734375	-1419.625	135.1384124755859	-599.5205078125	-754.132568359375	538.217529296875	-414.4956970214844	-820.8617553710938	801.844482421875	-366.0341796875	-726.0528564453125	23.57301139831543	-470.496337890625	-745.5955200195312	401.6072998046875	-412.6281433105469	-501.9673461914062	72.87221527099609	-473.1056518554688	-542.0564575195312	48.30962371826172	-524.8306274414062	-604.920166015625	41.79853057861328	-422.2107238769531	-770.0828857421875	25.75984382629395	-530.5542602539062	nan	nan	nan	
208	2.07	-1014.953674316406	1100.519287109375	-468.7729797363281	-1019.85498046875	1101.798461914062	-604.3201293945312	-1022.069519042969	1139.166137695312	-541.139892578125	-786.2733154296875	1317.452392578125	-544.0430908203125	-1044.758544921875	1293.190063476562	-546.8050537109375	-978.0549926757812	1580.755737304688	-555.6638793945312	-809.0890502929688	1454.926879882812	-543.0601196289062	-1052.64990234375	1399.415649414062	-474.8756713867188	-981.2410888671875	1563.45751953125	-658.8139038085938	-893.6105346679688	1541.112182617188	-723.9678955078125	-923.4801635742188	1412.000366210938	-797.4818725585938	-934.8821411132812	1191.680053710938	-817.5355224609375	-1004.840942382812	1189.067016601562	-765.4660034179688	-881.6517944335938	921.2041015625	-767.4232788085938	-961.9598999023438	909.117919921875	-801.6730346679688	-935.5709228515625	1074.167724609375	-820.7313842773438	-901.3056030273438	729.2889404296875	-747.2259521484375	-945.4525756835938	830.4400634765625	-800.0858154296875	-879.4301147460938	831.8878173828125	-777.425048828125	-932.9669799804688	1549.751831054688	-371.6559753417969	-960.9151000976562	1476.555053710938	-311.3056030273438	-1014.265869140625	1187.352416992188	-303.7496337890625	-1006.864868164062	1188.181884765625	-400.9555969238281	-909.0166015625	925.9224853515625	-303.5124816894531	-988.33935546875	920.6064453125	-283.2347106933594	-1004.285522460938	1111.979248046875	-287.3360595703125	-911.4136352539062	729.3345336914062	-321.9711608886719	-897.49072265625	814.7344360351562	-297.2838134765625	-967.93994140625	816.1992797851562	-277.5169067382812	-957.520263671875	1726.311645507812	-475.7435302734375	-779.2761840820312	1819.63818359375	-565.028564453125	-806.9727783203125	1810.648803710938	-438.298583984375	-937.6222534179688	1738.044921875	-609.6306762695312	-943.9320068359375	1004.097106933594	-716.2317504882812	-881.7442016601562	1004.670837402344	-357.656494140625	-803.2694702148438	1067.6669921875	-418.29736328125	-826.9745483398438	1060.410888671875	-683.1099853515625	-1011.129211425781	505.1780090332031	-685.0189819335938	-997.6826782226562	654.8905029296875	-708.8949584960938	-1355.969604492188	102.2531509399414	-662.6091918945312	-1218.355224609375	324.8018798828125	-698.4356689453125	-1149.184692382812	30.4954719543457	-608.4248046875	-1219.177124023438	47.14104843139648	-575.0083618164062	-1250.42626953125	40.13996505737305	-686.5184326171875	-1412.906982421875	144.4815368652344	-600.8074951171875	-747.4981689453125	538.7855224609375	-413.2426452636719	-811.74462890625	803.3306274414062	-364.1588134765625	-725.7461547851562	23.54603385925293	-470.3334655761719	-740.2734985351562	401.9984436035156	-411.4665832519531	-500.5847778320312	70.98001098632812	-473.8569030761719	-541.6193237304688	47.33891677856445	-525.4898071289062	-603.9282836914062	41.41983413696289	-422.55615234375	-769.8737182617188	26.05699348449707	-530.113525390625	nan	nan	nan	
209	2.08	-1004.171875	1102.68994140625	-466.990234375	-1008.612915039062	1103.826904296875	-602.5322265625	-1011.13671875	1141.124267578125	-539.301513671875	-776.069091796875	1320.244873046875	-541.3748779296875	-1034.573364257812	1294.811279296875	-545.1136474609375	-969.5943603515625	1582.660278320312	-553.803955078125	-799.6946411132812	1457.666381835938	-540.4360961914062	-1043.187133789062	1400.838012695312	-473.3839416503906	-972.0820922851562	1565.396484375	-656.9299926757812	-884.0146484375	1543.726440429688	-721.635498046875	-913.029541015625	1414.633544921875	-795.572265625	-923.9812622070312	1194.300903320312	-815.6533813476562	-994.01806640625	1191.487670898438	-763.7449951171875	-869.7359619140625	924.0405883789062	-765.3680419921875	-949.9537963867188	911.6105346679688	-799.7902221679688	-924.2522583007812	1076.791137695312	-818.9002685546875	-888.6434936523438	732.021240234375	-744.919189453125	-933.1182861328125	832.9708862304688	-798.04833984375	-867.2272338867188	834.6614990234375	-775.2467041015625	-925.067138671875	1551.92041015625	-369.6505432128906	-952.86669921875	1478.633666992188	-309.3834228515625	-1004.840698242188	1189.211303710938	-302.0586242675781	-997.0271606445312	1190.081176757812	-399.2924499511719	-898.125732421875	928.3623657226562	-301.0190124511719	-977.5230102539062	922.61181640625	-281.2403564453125	-994.5296630859375	1113.880859375	-285.5483703613281	-899.3738403320312	731.7926635742188	-319.4056701660156	-885.9412841796875	817.2525634765625	-294.6561584472656	-956.5060424804688	818.3143310546875	-275.33251953125	-949.2724609375	1729.138061523438	-473.5258178710938	-770.434326171875	1822.053100585938	-562.091064453125	-798.6263427734375	1812.976928710938	-435.4593200683594	-928.898681640625	1740.972045898438	-607.3514404296875	-932.2522583007812	1006.298522949219	-714.2742919921875	-871.4231567382812	1006.892761230469	-355.3484191894531	-792.7581176757812	1070.14013671875	-415.7716064453125	-815.405517578125	1062.78076171875	-680.5838623046875	-997.0099487304688	506.2096252441406	-685.1053466796875	-984.3511962890625	656.4268798828125	-708.090087890625	-1350.75732421875	109.0006332397461	-664.0194702148438	-1207.869995117188	329.4781494140625	-698.88818359375	-1149.10791015625	30.32934951782227	-608.6729125976562	-1217.210083007812	48.27942657470703	-575.7138671875	-1248.467407226562	41.22975540161133	-686.7208251953125	-1405.326782226562	154.0983428955078	-602.3208618164062	-741.0775146484375	539.255615234375	-412.0599060058594	-802.693359375	804.7077026367188	-362.4682006835938	-725.4105224609375	23.53135299682617	-470.1803894042969	-735.1024169921875	402.3105773925781	-410.3328247070312	-499.2468872070312	69.27215576171875	-474.7330322265625	-541.2901611328125	46.54372406005859	-526.2720947265625	-602.9457397460938	41.2611083984375	-423.0093688964844	-769.6970825195312	26.30294990539551	-529.58154296875	nan	nan	nan	
